<?xml version="1.0" encoding="iso-8859-1"?>
<!-- Uploaded to: SVG Repo, www.svgrepo.com, Generator: SVG Repo Mixer Tools -->
<svg height="800px" width="800px" version="1.1" id="Layer_1" xmlns="http://www.w3.org/2000/svg" xmlns:xlink="http://www.w3.org/1999/xlink" 
	 viewBox="0 0 512 512" xml:space="preserve">
<path style="fill:#FED159;" d="M427.944,171.944c0-95.373-77.652-172.612-173.181-171.939
	C160.571,0.668,83.907,78.029,84.056,172.224c0.057,35.888,11.111,69.196,29.971,96.74c21.099,30.811,32.978,66.994,32.978,104.335
	v3.945h217.991v-4.759c0-36.92,11.75-72.709,32.696-103.112C416.772,241.68,427.944,208.117,427.944,171.944z"/>
<g>
	<path style="fill:#F6C454;" d="M163.571,268.964c-18.859-27.542-29.914-60.85-29.971-96.738
		C133.462,85.98,197.722,13.86,280.869,1.788c-8.517-1.234-17.234-1.846-26.106-1.784C160.571,0.668,83.907,78.029,84.056,172.224
		c0.057,35.888,11.111,69.196,29.971,96.738c21.099,30.812,32.978,66.994,32.978,104.335v3.945h49.543v-3.945
		C196.549,335.956,184.668,299.774,163.571,268.964z"/>
	<polygon style="fill:#F6C454;" points="321.222,145.07 321.222,117.42 269.826,117.42 269.826,81.802 242.176,81.802 
		242.176,117.42 190.779,117.42 190.779,207.401 293.571,207.401 293.571,242.083 190.779,242.083 190.779,269.734 242.176,269.734 
		242.176,305.351 269.826,305.351 269.826,269.734 321.222,269.734 321.222,179.752 218.429,179.752 218.429,145.07 	"/>
</g>
<ellipse style="fill:#FFE4A9;" cx="335.92" cy="155.838" rx="44.081" ry="60.829"/>
<path id="SVGCleanerId_0" style="fill:#FED159;" d="M321.222,117.416v27.653h-28.697c1.348-10.358,4.585-19.818,9.222-27.653
	H321.222z"/>
<path style="fill:#FED159;" d="M295.379,179.752h25.843v33.453C309.595,207.537,300.201,195.316,295.379,179.752z"/>
<g>
	<path id="SVGCleanerId_0_1_" style="fill:#FED159;" d="M321.222,117.416v27.653h-28.697c1.348-10.358,4.585-19.818,9.222-27.653
		H321.222z"/>
</g>
<path style="fill:#FED159;" d="M321.222,179.752v33.453c-11.627-5.668-21.021-17.889-25.843-33.453L321.222,179.752L321.222,179.752
	z"/>
<path style="fill:#57A3A7;" d="M170.268,464.439C188.129,492.995,219.837,512,256,512s67.871-19.006,85.731-47.561H170.268z"/>
<path style="fill:#65B4BB;" d="M351.007,424.145c14.775,0,26.753-11.978,26.753-26.753c0-14.775-11.978-26.753-26.753-26.753
	H160.993c-14.775,0-26.753,11.978-26.753,26.753c0,14.775,11.978,26.753,26.753,26.753c-14.775,0-26.753,11.978-26.753,26.753l0,0
	c0,14.775,11.978,26.753,26.753,26.753h190.012c14.775,0,26.753-11.978,26.753-26.753l0,0
	C377.761,436.123,365.782,424.145,351.007,424.145z"/>
<path style="fill:#57A3A7;" d="M202.613,424.139c-14.784,0-26.755-11.97-26.755-26.741c0-7.399,2.999-14.084,7.835-18.92
	c4.836-4.836,11.521-7.835,18.92-7.835h-41.618c-7.386,0-14.071,2.999-18.92,7.835c-4.836,4.836-7.835,11.521-7.835,18.92
	c0,14.771,11.983,26.741,26.755,26.741c-7.386,0-14.071,2.999-18.92,7.835c-4.836,4.849-7.835,11.534-7.835,18.92
	c0,14.784,11.983,26.755,26.755,26.755h41.618c-14.784,0-26.755-11.97-26.755-26.755c0-7.386,2.999-14.071,7.835-18.92
	C188.529,427.138,195.214,424.139,202.613,424.139z"/>
</svg>